PathFileType	4	(X/Y/Z)	Patient4_TMGait_0pt3_01_left_07.trc.trc
DataRate	CameraRate	NumFrames	NumMarkers	Units	OrigDataRate	OrigDataStartFrame	OrigNumFrames
49.822064056939	49.822064056939	4	33	mm	49.822064056939	36	       141
Frame#	Time	Sacral			L.Shoulder			Chest			R.Shoulder			Neck			R.ASIS			L.ASIS			R.Thigh.Superior			R.Thigh.Lateral			R.Thigh.Inferior			R.Patella			L.Thigh.Superior			L.Thigh.Lateral			L.Thigh.Inferior			L.Patella			L.Shank.Superior			L.Shank.Lateral			L.Shank.Inferior			R.Shank.Superior			R.Shank.Lateral			R.Shank.Inferior			R.Heel			R.Midfoot.Superior			R.Midfoot.Lateral			R.Toe			L.Heel			L.Midfoot.Lateral			L.Midfoot.Superior			L.Toe			L.Elbow			L.Wrist			R.Elbow			R.Wrist			
		X1	Y1	Z1	X2	Y2	Z2	X3	Y3	Z3	X4	Y4	Z4	X5	Y5	Z5	X6	Y6	Z6	X7	Y7	Z7	X8	Y8	Z8	X9	Y9	Z9	X10	Y10	Z10	X11	Y11	Z11	X12	Y12	Z12	X13	Y13	Z13	X14	Y14	Z14	X15	Y15	Z15	X16	Y16	Z16	X17	Y17	Z17	X18	Y18	Z18	X19	Y19	Z19	X20	Y20	Z20	X21	Y21	Z21	X22	Y22	Z22	X23	Y23	Z23	X24	Y24	Z24	X25	Y25	Z25	X26	Y26	Z26	X27	Y27	Z27	X28	Y28	Z28	X29	Y29	Z29	X30	Y30	Z30	X31	Y31	Z31	X32	Y32	Z32	X33	Y33	Z33	

36	13.192500000000	827.326442324367	1000.767838475249	573.210592037964	973.161597315262	1421.362410966046	362.407234700098	1107.531967076879	1352.035082461087	497.765712825319	1066.058157569149	1429.822779583734	683.763231314996	993.266027818815	1484.772892722771	521.323426056812	1070.543953283536	924.007665556552	650.258516797994	1014.539920131738	956.614858834254	382.857359268682	1065.004612809317	713.831490297837	623.589787400278	967.238496283090	617.626645387852	692.749254649540	1024.494602646606	552.204024632133	609.580147822787	1003.537507481134	460.135592775478	618.632970764418	1094.437962960114	763.980815149675	417.759053403600	1033.037980768723	635.415511953919	350.168384276805	1131.882765080458	571.510681323087	411.946413792502	1145.474730262600	497.908647380246	414.235508740142	1117.710348359704	423.758884632393	403.067451731407	1030.827735274040	311.776019862744	344.737594593592	1081.254598917929	196.204694981998	406.417733334770	946.578324323553	383.008844729710	628.531382773573	848.276458040405	307.126768025848	696.384130798958	856.670299720363	203.792367846158	634.766685680963	680.801424762143	67.469403063482	608.883205128568	856.539625663808	100.493235549116	646.714334071484	761.391992792663	47.880603697842	683.523484025815	968.185510084543	37.303333387063	676.418625818513	951.648512879445	41.377212174002	434.509485419019	1027.322819175927	39.056893636359	355.944792657890	1111.960638986536	97.535797653114	385.855047374518	1238.789385226030	41.306786790932	357.065624931540	854.941731843458	1083.054527298849	279.370140074136	904.548917796644	825.423658310079	286.423880244349	1232.926035708963	1131.598285069083	787.875156427118	1478.871963907110	1163.529303457229	727.182684698657	
37	13.212571428571	828.090288004008	1001.078633106628	566.769934421888	974.895650327959	1421.791430079145	357.229833034687	1108.588504425107	1352.372813060053	493.195985616967	1066.060838497389	1429.802595824838	679.134423201587	993.960541174091	1484.970182821224	516.577425802717	1070.797301871836	924.270400672618	645.527728628830	1016.400579770081	956.425477256886	377.749284187479	1063.928441464325	713.824934323419	620.529523831466	964.987284040404	618.751867465252	689.822906082482	1022.530010171108	552.285092017286	607.686135868973	1000.843347953508	460.318948182299	617.254103689062	1096.096824432613	763.997301698016	414.510805187456	1034.898162852634	634.911445395184	347.277996221531	1133.344544520932	571.014011311573	409.729434783782	1146.736744843984	496.901801355671	412.470696436127	1117.778698808612	422.532672383728	401.742081229448	1029.417272876670	311.549029410346	343.856573422842	1077.594129543173	195.618717462652	406.284592561156	943.298562860651	383.646887837268	627.415384690397	844.093432629474	309.034360817101	695.323073845000	852.255029690931	205.077733051640	634.640930435192	675.429288622388	70.129682103397	609.175011776213	851.475508377630	100.943627679332	646.841895805210	755.822780252590	49.285234823361	683.693586405378	962.356793936084	37.164061227299	676.399964302383	945.818675189069	41.669890143062	434.686896694400	1021.427317674806	39.377771342729	356.095354839090	1106.223184499972	97.619621434002	386.032066382151	1232.886052737420	41.008361111153	356.924850234402	858.488056332695	1083.269724053444	271.552734417740	913.266748367802	826.671830869507	276.606862393792	1230.599530741908	1129.070128889389	782.688120475275	1479.667650933320	1148.849093836500	727.023416831945	
38	13.232642857143	828.805443240642	1001.445545570809	560.215616552380	976.805744347527	1422.255232990615	351.958512927602	1109.653492673846	1352.753748172631	488.683584856081	1065.895138253865	1429.883947108892	674.494832621100	994.672125998304	1485.221448164494	511.758535577678	1070.916116220936	924.615246682562	640.826451312768	1018.296636177399	956.216279707063	372.635050831020	1062.874357035719	713.925802008794	617.463983352460	962.824393803005	619.927537756729	686.851590316012	1020.726323160503	552.450796055336	605.773320135355	998.392350801731	460.520659254596	615.895072143865	1097.463991184318	763.767339970045	410.961542608577	1036.091787815091	634.291754984272	344.233426518152	1134.126722276335	570.299215754164	407.247414555405	1147.239139560562	495.786486709818	410.492218832088	1117.164331667111	421.252467968841	400.211338425094	1027.407294871388	311.168738448821	342.829971599690	1073.614337223075	194.998342263142	405.986057207511	940.207190221124	384.339189974975	626.291588892344	840.070280601664	311.045148810711	694.228685484493	847.978814431270	206.447475503857	634.500056578955	670.129963121205	72.965496767680	609.464728294254	846.489030449424	101.347525557636	646.875219730963	750.308042850629	50.805632891622	683.851724664909	956.561652829402	37.055233803830	676.359279765168	939.919266504900	41.863620621463	434.813577311543	1015.466766324251	39.562980998947	356.192402639945	1100.383044127301	97.637723591963	386.122157192728	1226.921018639053	40.755057201871	356.773227281125	862.357510096364	1083.603737018653	263.258382569284	922.258291372291	828.140729083877	266.495305069027	1227.385194273786	1126.322640059843	777.874767608565	1479.022507428265	1132.883694556585	727.874909403451	
39	13.252714285714	829.445753837940	1001.881442807484	553.621456355113	978.853655471504	1422.755900577196	346.623717223368	1110.705021306238	1353.187299779661	484.242191331715	1065.569248072199	1430.096281889440	669.855567974232	995.391071378188	1485.540993139145	506.879416658060	1070.881411922995	925.056481174548	636.158013824782	1020.164243794390	956.022631997672	367.548280782777	1061.888292872611	714.149847727307	614.366353449593	960.850943002560	621.124417608752	683.823502070575	1019.179788719534	552.701003962490	603.798866840914	996.313264554763	460.706820206115	614.534197517149	1098.489722430520	763.308526352380	407.103886302653	1036.567363863408	633.587114032983	341.032557966696	1134.170073711301	569.390529352604	404.493201350447	1146.908822730677	494.599446356646	408.296901352710	1115.824863499681	419.956962597375	398.470755458908	1024.791924226299	310.655003792865	341.634977721218	1069.306751096043	194.362123686169	405.525764668689	937.410788475028	385.068543586283	625.139873509373	836.300238088066	313.158235256693	693.079944232100	843.902761079988	207.902572340186	634.323424193211	664.932688650355	76.024977945154	609.743142762800	841.619205569502	101.715739517565	646.823813661377	744.867454741995	52.478777800638	683.993394210135	950.803818515458	36.973335035345	676.298351776367	933.954265621591	41.954649480179	434.875162841472	1009.451644367663	39.609886151342	356.229362282058	1094.447282351010	97.591064655046	386.126503338942	1220.909401939783	40.541678239161	356.625449135850	866.647865767859	1084.012317554169	254.554900888432	931.625354262242	829.781997342335	256.138491471420	1223.174091717234	1123.391530205771	773.504202554774	1476.575766104763	1115.724542635479	729.650116118405	
